<svg xmlns="http://www.w3.org/2000/svg" width="24" height="24" fill="none"><path stroke="#fff" stroke-linecap="round" stroke-linejoin="round" stroke-width="1.5" d="m12.52 19.785 7.034-7.442c1.729-1.828 1.984-4.836.348-6.758a4.54 4.54 0 0 0-1.465-1.144 4.296 4.296 0 0 0-3.566-.101c-.569.24-1.087.6-1.52 1.059l-1.322 1.398-1.142-1.207C9.159 3.76 6.315 3.492 4.498 5.222c-.456.433-.824.96-1.081 1.55a5.022 5.022 0 0 0-.096 3.772c.227.602.568 1.15 1.001 1.608l7.215 7.633c.13.138.307.215.492.215.184 0 .36-.077.49-.215v0Z"/></svg>