<svg xmlns="http://www.w3.org/2000/svg" width="38" height="38" fill="none"><path stroke="#1D1D1D" stroke-linecap="round" stroke-linejoin="round" stroke-width="1.5" d="M19.823 31.326 30.96 19.543c2.737-2.895 3.14-7.657.55-10.7a7.189 7.189 0 0 0-2.319-1.812 6.802 6.802 0 0 0-5.646-.16 7.13 7.13 0 0 0-2.407 1.677l-2.094 2.214-1.807-1.912C14.5 5.955 9.998 5.528 7.122 8.268a7.55 7.55 0 0 0-1.712 2.453 7.952 7.952 0 0 0-.152 5.972c.36.955.899 1.822 1.586 2.548l11.424 12.085c.206.218.486.34.777.34.292 0 .572-.122.778-.34v0Z"/></svg>