<svg xmlns="http://www.w3.org/2000/svg"  xmlns:xlink="http://www.w3.org/1999/xlink" aria-hidden="true" style="position:absolute;width:0;height:0;overflow:hidden"><defs><symbol id="basket" viewBox="0 0 32 32"><path fill="none" stroke="#fff" stroke-linecap="round" stroke-linejoin="round" stroke-width="2" d="M27 9H5a1 1 0 0 0-1 1v16a1 1 0 0 0 1 1h22a1 1 0 0 0 1-1V10a1 1 0 0 0-1-1z" style="stroke:var(--color1, #fff)"/><path fill="none" stroke="#fff" stroke-linecap="round" stroke-linejoin="round" stroke-width="2" d="M11 13V9a4.997 4.997 0 0 1 5-5 4.997 4.997 0 0 1 5 5v4" style="stroke:var(--color1, #fff)"/></symbol><symbol id="favorite" viewBox="0 0 32 32"><path fill="none" stroke="#fff" stroke-linecap="round" stroke-linejoin="round" stroke-width="2" d="m16.693 26.38 9.38-9.922c2.305-2.438 2.645-6.449.464-9.011-.546-.644-1.211-1.163-1.953-1.526s-1.547-.562-2.364-.585c-.817-.023-1.631.13-2.39.45s-1.45.801-2.028 1.412l-1.763 1.865-1.522-1.61c-2.305-2.438-6.096-2.798-8.518-.49-.608.578-1.099 1.281-1.442 2.066s-.531 1.636-.553 2.501c-.022.865.123 1.725.426 2.529s.757 1.533 1.335 2.145l9.62 10.177c.174.184.409.287.655.287s.481-.103.655-.287v0z" style="stroke:var(--color1, #fff)"/></symbol><symbol id="location" viewBox="0 0 32 32"><path fill="#fff" d="M16 2.667C10.4 2.667 5.333 6.96 5.333 13.6c0 4.427 3.56 9.667 10.667 15.733 7.107-6.067 10.667-11.307 10.667-15.733C26.667 6.96 21.6 2.667 16 2.667zM16 16c-1.467 0-2.667-1.2-2.667-2.667s1.2-2.667 2.667-2.667c1.467 0 2.667 1.2 2.667 2.667S17.467 16 16 16z" style="fill:var(--color1, #fff)"/></symbol><symbol id="search" viewBox="0 0 32 32"><path fill="none" stroke="currentColor" stroke-linecap="round" stroke-linejoin="round" stroke-width="2" d="M14.5 25C20.299 25 25 20.299 25 14.5S20.299 4 14.5 4 4 8.701 4 14.5 8.701 25 14.5 25zM21.924 21.925 27.999 28" style="stroke:var(--color1, currentColor)"/></symbol><symbol id="user" viewBox="0 0 32 32"><path fill="none" stroke="#fff" stroke-linecap="round" stroke-linejoin="round" stroke-width="2" d="M16 20a8 8 0 1 0 0-16 8 8 0 0 0 0 16z" style="stroke:var(--color1, #fff)"/><path fill="none" stroke="#fff" stroke-linecap="round" stroke-linejoin="round" stroke-width="2" d="M3.874 26.999a14.004 14.004 0 0 1 24.254 0" style="stroke:var(--color1, #fff)"/></symbol><symbol id="location-mobile" viewBox="0 0 12 14"><path fill="#565656" d="M6 .333C3.2.333.667 2.48.667 5.8c0 2.213 1.78 4.833 5.333 7.867 3.553-3.034 5.333-5.654 5.333-7.867C11.333 2.48 8.8.333 6 .333ZM6 7c-.734 0-1.333-.6-1.333-1.333 0-.734.6-1.334 1.333-1.334s1.333.6 1.333 1.334C7.333 6.4 6.733 7 6 7Z"/></symbol><symbol id="arrow-prev" viewBox="0 0 16 8"><path fill="#565656" d="M15.354 4.354a.5.5 0 0 0 0-.708L12.172.464a.5.5 0 1 0-.708.708L14.293 4l-2.829 2.828a.5.5 0 1 0 .708.708l3.182-3.182ZM0 4.5h15v-1H0v1Z"/></defs></symbol></svg>