<svg xmlns="http://www.w3.org/2000/svg" width="38" height="38" fill="none"><path fill="#fff" fill-rule="evenodd" d="M0 19C0 8.507 8.507 0 19 0s19 8.507 19 19-8.507 19-19 19S0 29.493 0 19ZM19 8.867c-2.751 0-3.097.012-4.177.06-1.08.05-1.816.221-2.46.472a4.962 4.962 0 0 0-1.795 1.168 4.975 4.975 0 0 0-1.17 1.795c-.25.645-.422 1.381-.47 2.46-.049 1.08-.061 1.426-.061 4.178s.012 3.096.06 4.177c.05 1.08.221 1.816.472 2.46a4.965 4.965 0 0 0 1.168 1.795c.563.564 1.129.91 1.795 1.17.645.25 1.381.42 2.46.47 1.08.05 1.426.062 4.178.062s3.096-.012 4.177-.062c1.079-.05 1.816-.22 2.46-.47a4.959 4.959 0 0 0 1.795-1.17 4.975 4.975 0 0 0 1.17-1.795c.248-.644.42-1.381.47-2.46.049-1.08.061-1.425.061-4.177s-.012-3.097-.06-4.178c-.052-1.079-.223-1.815-.472-2.46a4.973 4.973 0 0 0-1.17-1.795A4.953 4.953 0 0 0 25.638 9.4c-.646-.25-1.383-.422-2.461-.471-1.081-.05-1.425-.061-4.178-.061H19Z" clip-rule="evenodd"/><path fill="#fff" fill-rule="evenodd" d="M18.092 10.693H19c2.706 0 3.026.01 4.095.058.988.045 1.524.21 1.881.349.473.184.81.403 1.165.758.354.355.574.692.758 1.165.139.357.304.893.349 1.881.049 1.069.06 1.39.06 4.094 0 2.704-.012 3.025-.06 4.093-.045.988-.21 1.524-.349 1.881-.184.473-.404.81-.758 1.164a3.134 3.134 0 0 1-1.165.758c-.357.14-.893.304-1.881.35-1.069.048-1.39.059-4.095.059-2.706 0-3.027-.011-4.095-.06-.988-.045-1.524-.21-1.882-.349a3.14 3.14 0 0 1-1.165-.758 3.14 3.14 0 0 1-.758-1.165c-.139-.356-.304-.893-.35-1.88-.048-1.069-.057-1.39-.057-4.096 0-2.706.01-3.025.058-4.093.045-.988.21-1.524.349-1.882.183-.473.403-.81.758-1.165a3.144 3.144 0 0 1 1.165-.758c.358-.14.894-.304 1.882-.35.935-.042 1.297-.055 3.186-.057v.003Zm6.318 1.682a1.216 1.216 0 1 0 0 2.432 1.216 1.216 0 0 0 0-2.432ZM19 13.796a5.204 5.204 0 1 0 .001 10.408 5.204 5.204 0 0 0 0-10.408Z" clip-rule="evenodd"/><path fill="#fff" fill-rule="evenodd" d="M19.001 15.622a3.378 3.378 0 1 1 0 6.756 3.378 3.378 0 0 1 0-6.756Z" clip-rule="evenodd"/></svg>