<svg xmlns="http://www.w3.org/2000/svg" width="29" height="29" fill="none"><path fill="#FFB600" d="M28.773 14.5a8.557 8.557 0 0 1-8.564 8.564c-4.712 0-8.564-3.851-8.564-8.564 0-4.712 3.806-8.564 8.519-8.564 4.803 0 8.61 3.852 8.61 8.564Z"/><path fill="#F7981D" d="M20.21 5.936c4.712 0 8.563 3.852 8.563 8.564a8.557 8.557 0 0 1-8.564 8.564c-4.712 0-8.564-3.851-8.564-8.564"/><path fill="#FF8500" d="M20.21 5.936c4.712 0 8.563 3.852 8.563 8.564a8.557 8.557 0 0 1-8.564 8.564"/><path fill="#FF5050" d="M8.7 5.936C4.033 5.981.227 9.788.227 14.5a8.557 8.557 0 0 0 8.564 8.564c2.22 0 4.214-.86 5.754-2.22.318-.272.59-.59.861-.906H13.64a10.45 10.45 0 0 1-.634-.861h3.036c.18-.272.362-.59.498-.907h-4.033a5.413 5.413 0 0 1-.362-.906h4.712c.272-.86.453-1.767.453-2.719 0-.634-.09-1.223-.18-1.812h-5.257c.045-.317.136-.59.226-.906h4.713a5.394 5.394 0 0 0-.363-.907h-3.987c.136-.317.317-.589.498-.906h3.036a4.306 4.306 0 0 0-.68-.906H13.64c.272-.317.544-.59.861-.861-1.495-1.405-3.534-2.22-5.755-2.22 0-.091 0-.091-.045-.091Z"/><path fill="#E52836" d="M.227 14.5a8.557 8.557 0 0 0 8.564 8.564c2.22 0 4.214-.86 5.754-2.22.318-.272.59-.589.861-.906H13.64a10.45 10.45 0 0 1-.634-.861h3.036c.18-.272.362-.59.498-.906h-4.033a5.413 5.413 0 0 1-.362-.907h4.712c.272-.86.453-1.767.453-2.718 0-.635-.09-1.224-.18-1.813h-5.257c.045-.317.136-.589.226-.906h4.713a5.394 5.394 0 0 0-.363-.906h-3.987c.136-.318.317-.59.498-.907h3.036a4.306 4.306 0 0 0-.68-.906H13.64c.272-.317.544-.589.861-.86-1.495-1.406-3.534-2.221-5.755-2.221H8.7"/><path fill="#CB2026" d="M8.79 23.064c2.22 0 4.215-.86 5.755-2.22.318-.272.59-.589.861-.906H13.64c-.226-.272-.453-.59-.634-.861h3.036c.18-.272.362-.59.498-.906h-4.033a5.405 5.405 0 0 1-.362-.907h4.712c.272-.86.453-1.767.453-2.718 0-.635-.09-1.224-.18-1.813h-5.257c.045-.317.136-.589.226-.906h4.713a5.403 5.403 0 0 0-.363-.906h-3.987c.136-.318.317-.59.498-.907h3.036a4.309 4.309 0 0 0-.68-.906H13.64c.272-.317.544-.589.861-.86-1.495-1.406-3.534-2.221-5.755-2.221H8.7"/><path fill="#fff" d="m11.826 16.675.136-.77c-.045 0-.136.045-.226.045-.317 0-.363-.181-.317-.272l.272-1.586h.498l.136-.86h-.453l.09-.544h-.906s-.543 2.99-.543 3.353c0 .543.317.77.725.77.271 0 .498-.09.588-.136ZM12.144 15.225c0 1.269.86 1.586 1.586 1.586.68 0 .951-.136.951-.136l.182-.861s-.499.227-.952.227c-.997 0-.816-.725-.816-.725h1.858s.136-.59.136-.816c0-.59-.317-1.314-1.314-1.314-.952-.09-1.631.906-1.631 2.039Zm1.586-1.314c.498 0 .407.589.407.634h-.996c0-.045.09-.634.589-.634ZM19.484 16.675l.182-.997s-.454.227-.77.227c-.635 0-.907-.499-.907-1.042 0-1.088.544-1.677 1.178-1.677.453 0 .816.272.816.272l.136-.952s-.544-.226-1.042-.226c-1.043 0-2.085.906-2.085 2.628 0 1.133.544 1.903 1.631 1.903.363 0 .861-.136.861-.136ZM6.842 13.095c-.634 0-1.087.181-1.087.181l-.136.77s.408-.18.997-.18c.317 0 .589.045.589.317 0 .181-.046.226-.046.226h-.407c-.77 0-1.632.317-1.632 1.36 0 .815.544.996.861.996.635 0 .907-.407.952-.407l-.045.362h.815l.363-2.492c0-1.088-.907-1.133-1.224-1.133Zm.181 2.04c0 .135-.09.86-.634.86-.272 0-.362-.226-.362-.362 0-.227.136-.544.815-.544a.715.715 0 0 0 .181.045ZM8.927 16.766c.226 0 1.36.045 1.36-1.178 0-1.133-1.088-.906-1.088-1.36 0-.226.18-.317.498-.317.136 0 .634.046.634.046l.136-.816s-.317-.09-.86-.09c-.68 0-1.36.271-1.36 1.177 0 1.043 1.133.952 1.133 1.36 0 .272-.317.317-.544.317-.408 0-.816-.136-.816-.136l-.135.816c.045.09.271.18 1.042.18ZM27.006 12.37l-.18 1.224s-.363-.453-.862-.453c-.815 0-1.54.997-1.54 2.175 0 .725.362 1.495 1.132 1.495.544 0 .861-.362.861-.362l-.045.317h.906l.68-4.35-.952-.045Zm-.407 2.402c0 .499-.227 1.133-.725 1.133-.318 0-.499-.272-.499-.725 0-.725.317-1.178.725-1.178.317 0 .499.226.499.77ZM1.903 16.72l.544-3.262.09 3.263h.635l1.178-3.263-.498 3.263h.951l.725-4.35H4.033l-.906 2.673-.046-2.673H1.767l-.725 4.35h.861ZM15.95 16.72c.272-1.495.317-2.718.952-2.492.09-.589.226-.815.317-1.042h-.181c-.408 0-.726.544-.726.544l.091-.499h-.86l-.59 3.535h.997v-.046ZM21.569 13.095c-.635 0-1.088.181-1.088.181l-.136.77s.408-.18.997-.18c.317 0 .59.045.59.317 0 .181-.046.226-.046.226h-.408c-.77 0-1.631.317-1.631 1.36 0 .815.544.996.86.996.635 0 .907-.407.952-.407l-.045.362h.816l.362-2.492c.045-1.088-.906-1.133-1.223-1.133Zm.226 2.04c0 .135-.09.86-.634.86-.272 0-.363-.226-.363-.362 0-.227.136-.544.816-.544.136.045.136.045.181.045ZM23.563 16.72c.271-1.495.317-2.718.951-2.492.09-.589.227-.815.317-1.042h-.181c-.408 0-.725.544-.725.544l.09-.499h-.86l-.59 3.535h.997v-.046Z"/><path fill="#DCE5E5" d="M10.422 16.04c0 .544.317.77.725.77.317 0 .589-.09.68-.135l.136-.77c-.046 0-.136.045-.227.045-.317 0-.363-.181-.317-.272l.272-1.586h.498l.136-.86h-.453l.09-.544M12.597 15.225c0 1.269.408 1.586 1.133 1.586.68 0 .951-.136.951-.136l.182-.861s-.499.227-.952.227c-.997 0-.816-.725-.816-.725h1.858s.136-.59.136-.816c0-.59-.317-1.314-1.314-1.314-.952-.09-1.178.906-1.178 2.039Zm1.133-1.314c.498 0 .589.589.589.634H13.14c0-.045.09-.634.589-.634ZM19.484 16.675l.182-.997s-.454.227-.77.227c-.635 0-.907-.499-.907-1.042 0-1.088.544-1.677 1.178-1.677.453 0 .816.272.816.272l.136-.952s-.544-.226-1.042-.226c-1.043 0-1.632.906-1.632 2.628 0 1.133.09 1.903 1.178 1.903.363 0 .861-.136.861-.136ZM5.619 14.092s.408-.181.997-.181c.317 0 .589.045.589.317 0 .181-.046.227-.046.227h-.407c-.77 0-1.632.317-1.632 1.36 0 .815.544.996.861.996.635 0 .907-.408.952-.408l-.045.363h.815l.363-2.492c0-1.043-.907-1.088-1.27-1.088m.68 1.948c0 .136-.543.861-1.087.861-.272 0-.362-.226-.362-.362 0-.227.136-.544.815-.544.136.045.635.045.635.045ZM7.93 16.675s.272.09 1.042.09c.226 0 1.36.046 1.36-1.177 0-1.133-1.088-.906-1.088-1.36 0-.226.181-.317.498-.317.136 0 .635.046.635.046l.135-.816s-.317-.09-.86-.09c-.68 0-.907.271-.907 1.177 0 1.043.68.952.68 1.36 0 .272-.317.317-.544.317M26.825 13.594s-.363-.454-.86-.454c-.817 0-1.088.997-1.088 2.175 0 .726-.091 1.496.68 1.496.543 0 .86-.363.86-.363l-.045.317h.906l.68-4.35m-1.178 2.357c0 .498-.408 1.133-.907 1.133-.317 0-.498-.272-.498-.725 0-.725.317-1.178.725-1.178.317 0 .68.226.68.77ZM1.903 16.72l.544-3.262.09 3.263h.635l1.178-3.263-.498 3.263h.951l.725-4.35H4.395l-1.268 2.673-.046-2.673h-.498l-1.54 4.35h.86ZM14.998 16.72h.952c.272-1.495.317-2.718.952-2.492.09-.589.226-.815.317-1.042h-.181c-.408 0-.725.544-.725.544l.09-.499M20.345 14.092s.408-.181.997-.181c.317 0 .59.045.59.317 0 .181-.046.227-.046.227h-.408c-.77 0-1.631.317-1.631 1.36 0 .815.544.996.86.996.635 0 .907-.408.952-.408l-.045.363h.816l.362-2.492c0-1.043-.906-1.088-1.269-1.088m.68 1.948c0 .136-.544.861-1.087.861-.272 0-.363-.226-.363-.362 0-.227.136-.544.816-.544.181.045.634.045.634.045ZM22.611 16.72h.952c.271-1.495.317-2.718.951-2.492.09-.589.227-.815.317-1.042h-.18c-.409 0-.726.544-.726.544l.09-.499"/></svg>