<svg xmlns="http://www.w3.org/2000/svg" width="32" height="32" fill="none"><path stroke="#565656" stroke-linecap="round" stroke-linejoin="round" d="M28 22.165V9.835a1 1 0 0 0-.51-.872l-11-6.187a1 1 0 0 0-.98 0l-11 6.187a1 1 0 0 0-.51.872v12.33a1 1 0 0 0 .51.872l11 6.187a1 1 0 0 0 .98 0l11-6.187a1 1 0 0 0 .51-.872Z"/><path stroke="#565656" stroke-linecap="round" stroke-linejoin="round" d="M22.128 19.064v-6.5L10 5.875"/><path stroke="#565656" stroke-linecap="round" stroke-linejoin="round" d="M27.862 9.328 16.12 16 4.139 9.327M16.12 16l-.118 13.353"/></svg>