<svg xmlns="http://www.w3.org/2000/svg" width="43" height="44" fill="none"><g fill-rule="evenodd" clip-path="url(#a)" clip-rule="evenodd"><path fill="#006CB5" d="m17.44 17.15-4.085 9.722-2.747.003-2.326-8.143-.188-.614.015.009.026.014-.025-.013v-.001l.036.02c.418.227 2.276 1.311 3.425 3.067.175.893.342 1.705.579 2.58l2.541-6.645h2.75ZM28.492 23.697c-.02 2.024-1.789 3.33-4.516 3.33-1.163-.012-2.284-.246-2.893-.52l.365-2.18.335.157c.854.364 1.405.51 2.444.51.747 0 1.545-.3 1.55-.954.004-.427-.335-.73-1.345-1.206-.983-.467-2.287-1.247-2.27-2.647.012-1.894 1.82-3.214 4.385-3.214 1.004 0 1.808.21 2.323.41l-.352 2.11-.235-.114a4.689 4.689 0 0 0-1.942-.373c-1.013 0-1.485.434-1.485.84-.004.453.55.757 1.456 1.207 1.499.694 2.193 1.537 2.18 2.644ZM35.526 17.15h-2.003c-.622 0-1.088.173-1.359.81l-3.854 8.924h2.723s.446-1.2.548-1.463l3.323.006c.075.341.313 1.457.313 1.457h2.408l-2.099-9.735Zm-3.2 6.28c.467-1.212.935-2.432 1.379-3.654.255 1.22.516 2.436.776 3.654h-2.154ZM18.49 17.14h2.593l-1.623 9.74h-2.593l1.622-9.74Z"/><path fill="#FAA841" d="m5.375 17.053 4.39.003c.54.02.976.197 1.13.79l.676 3.368c-1.149-1.756-3.007-2.84-3.425-3.067l-.037-.02.026.014-.026-.014a11.013 11.013 0 0 0-2.734-1.073Z"/></g><defs><clipPath id="a"><path fill="#fff" d="M0 0h43v44H0z"/></clipPath></defs></svg>