<svg xmlns="http://www.w3.org/2000/svg" width="38" height="38" fill="none"><path fill="#fff" fill-rule="evenodd" d="M0 19C0 8.507 8.507 0 19 0s19 8.507 19 19-8.507 19-19 19S0 29.493 0 19Zm19.994 6.235s.366-.04.553-.237c.171-.18.166-.522.166-.522s-.023-1.595.731-1.83c.744-.232 1.698 1.542 2.711 2.224.765.515 1.346.402 1.346.402l2.707-.037s1.416-.085.745-1.178c-.056-.09-.392-.808-2.012-2.285-1.698-1.546-1.47-1.296.574-3.971 1.244-1.629 1.742-2.623 1.587-3.049-.148-.406-1.064-.298-1.064-.298l-3.047.018s-.226-.03-.394.068c-.163.097-.27.321-.27.321s-.481 1.26-1.124 2.333c-1.357 2.26-1.9 2.38-2.122 2.24-.516-.327-.387-1.315-.387-2.017 0-2.192.339-3.105-.66-3.342-.33-.079-.574-.13-1.422-.139-1.087-.01-2.007.004-2.528.254-.347.166-.615.538-.451.56.2.026.657.12.899.443.312.418.3 1.354.3 1.354s.18 2.58-.418 2.9c-.41.22-.974-.229-2.184-2.28-.62-1.051-1.088-2.213-1.088-2.213s-.09-.217-.251-.334a1.262 1.262 0 0 0-.468-.185l-2.896.019s-.435.011-.594.197c-.142.165-.011.506-.011.506s2.267 5.207 4.834 7.83c2.354 2.406 5.027 2.248 5.027 2.248h1.21Z" clip-rule="evenodd"/></svg>