<svg xmlns="http://www.w3.org/2000/svg" width="38" height="38" fill="none"><path fill="#fff" fill-rule="evenodd" d="M0 19C0 8.507 8.507 0 19 0s19 8.507 19 19-8.507 19-19 19S0 29.493 0 19Zm28.71-4.692a2.573 2.573 0 0 0-1.792-1.84c-1.58-.435-7.918-.435-7.918-.435s-6.338 0-7.918.435a2.573 2.573 0 0 0-1.792 1.84c-.423 1.623-.423 5.009-.423 5.009s0 3.386.423 5.008c.233.896.92 1.6 1.792 1.84C12.662 26.6 19 26.6 19 26.6s6.338 0 7.918-.435a2.573 2.573 0 0 0 1.792-1.84c.423-1.622.423-5.008.423-5.008s0-3.386-.423-5.009Z" clip-rule="evenodd"/><path fill="#fff" fill-rule="evenodd" d="M17.1 22.8v-6.334l5.067 3.167-5.067 3.166Z" clip-rule="evenodd"/></svg>